<svg width="70" height="70" viewBox="0 0 70 70" fill="none" xmlns="http://www.w3.org/2000/svg">
<rect width="70" height="70" rx="16" fill="#15357A"/>
<path d="M35.3364 9.68968V25.1428C34.401 24.3307 33.3569 23.6366 32.2069 23.0616C29.8899 21.9031 27.2298 21.3466 24.265 21.3466C20.5448 21.3466 17.1777 22.2526 14.2031 24.0894C11.2458 25.8657 8.91198 28.3408 7.20681 31.4831C5.48693 34.6022 4.64517 38.15 4.64517 42.0893C4.64517 46.0307 5.48783 49.6009 7.20448 52.766C8.90958 55.9098 11.242 58.4083 14.1955 60.2341C17.172 62.0741 20.5416 62.9817 24.265 62.9817C27.5744 62.9817 30.396 62.3268 32.6247 60.9004C33.8449 60.1372 34.9367 59.2961 35.8942 58.3749L36.41 60.9907L36.6254 62.0834H37.7392H46.2729H47.6277V60.7286V8V6.38535L46.0376 6.66576L36.4559 8.35544L35.3364 8.55287V9.68968ZM32.8656 49.2394L32.865 49.24C31.2004 50.99 29.0485 51.8881 26.2861 51.8881C23.5913 51.8881 21.4327 50.9769 19.7067 49.1646C17.9801 47.3516 17.0862 45.0307 17.0862 42.0893C17.0862 39.1473 17.98 36.8589 19.6954 35.1006C21.4187 33.3341 23.5807 32.4402 26.2861 32.4402C29.0379 32.4402 31.1864 33.3555 32.8539 35.1512L32.8652 35.1635L32.8769 35.1754C34.5923 36.9337 35.4861 39.2222 35.4861 42.1641C35.4861 45.1056 34.5922 47.4265 32.8656 49.2394Z" fill="white" stroke="#15357A" stroke-width="2.70965"/>
<ellipse cx="56.7197" cy="54.6086" rx="6.50852" ry="6.50852" fill="white"/>
</svg>
